<?xml version="1.0" encoding="UTF-8"?>
<svg width="134px" height="134px" viewBox="0 0 134 134" version="1.1" xmlns="http://www.w3.org/2000/svg" xmlns:xlink="http://www.w3.org/1999/xlink">
    <!-- Generator: Sketch 51.2 (57519) - http://www.bohemiancoding.com/sketch -->
    <title>Group 5</title>
    <desc>Created with Sketch.</desc>
    <defs></defs>
    <g id="Page-1" stroke="none" stroke-width="1" fill="none" fill-rule="evenodd">
        <g id="web01b" transform="translate(-654.000000, -375.000000)">
            <g id="Group-18" transform="translate(183.000000, 108.000000)">
                <g id="Group-11" transform="translate(292.000000, 64.621095)">
                    <g id="Group-14" transform="translate(0.000000, 176.441629)">
                        <g id="Group-15">
                            <g id="Group-5" transform="translate(53.250000, 0.000000)">
                                <g id="Artboard-Copy-3" transform="translate(61.968710, 15.277753)">
                                    <g id="Group-2">
                                        <g id="Group-8-Copy">
                                            <rect id="Rectangle-3" x="0" y="0" width="260.105018" height="161.444494"></rect>
                                            <g id="Group-7-+-Page-1-Mask" transform="translate(10.762966, 10.762966)">
                                                <g id="Page-1" transform="translate(0.000000, 0.508245)">
                                                    <g id="Group-47" opacity="0.601166214" transform="translate(67.218402, 14.385871)">
                                                        <path d="M104.228644,52.3448092 C104.228644,81.1402184 80.9419111,104.483666 52.216116,104.483666 C23.4904763,104.483666 0.203743372,81.1402184 0.203743372,52.3448092 C0.203743372,23.5494 23.4904763,0.205951898 52.216116,0.205951898 C80.9419111,0.205951898 104.228644,23.5494 104.228644,52.3448092" id="Fill-39" fill="#FFFFFF"></path>
                                                        <path d="M52.2161937,0.361786757 C23.6220314,0.361786757 0.359076324,23.6812435 0.359076324,52.3448559 C0.359076324,81.0083126 23.6220314,104.327769 52.2161937,104.327769 C80.8102006,104.327769 104.073311,81.0083126 104.073311,52.3448559 C104.073311,23.6812435 80.8102006,0.361786757 52.2161937,0.361786757 M52.2161937,104.639346 C38.2816079,104.639346 25.1811111,99.1996916 15.32792,89.3225689 C5.47472894,79.4456019 0.0482550091,66.3131305 0.0482550091,52.3448559 C0.0482550091,38.3764255 5.47472894,25.2441099 15.32792,15.3669871 C25.1811111,5.4897086 38.2816079,0.0502105119 52.2161937,0.0502105119 C66.1506241,0.0502105119 79.2512762,5.4897086 89.1043119,15.3669871 C98.9576584,25.2441099 104.384132,38.3764255 104.384132,52.3448559 C104.384132,66.3131305 98.9576584,79.4456019 89.1043119,89.3225689 C79.2512762,99.1996916 66.1506241,104.639346 52.2161937,104.639346" id="Fill-41" fill="#36BC99"></path>
                                                        <path d="M52.7817337,100.412238 C26.6032746,100.412238 5.38148313,79.1389024 5.38148313,52.8968605 C5.38148313,26.6548186 26.6032746,5.38148313 52.7817337,5.38148313 C78.9601927,5.38148313 100.181984,26.6548186 100.181984,52.8968605 C100.181984,79.1389024 78.9601927,100.412238 52.7817337,100.412238 Z" id="Fill-43" fill="#FFFFFF"></path>
                                                        <path d="M52.2161937,4.98521992 C26.1653268,4.98521992 4.97135382,26.2306693 4.97135382,52.3448092 C4.97135382,78.458949 26.1653268,99.7043984 52.2161937,99.7043984 C78.2670606,99.7043984 99.4610336,78.458949 99.4610336,52.3448092 C99.4610336,26.2306693 78.2670606,4.98521992 52.2161937,4.98521992 M52.2161937,100.015975 C39.5135482,100.015975 27.571327,95.0573945 18.5892127,86.0534642 C9.60725373,77.0495338 4.6605325,65.0781514 4.6605325,52.3448092 C4.6605325,39.611467 9.60725373,27.6400845 18.5892127,18.6361542 C27.571327,9.63237962 39.5137036,4.67364368 52.2161937,4.67364368 C64.9186838,4.67364368 76.8610603,9.63237962 85.8431747,18.6361542 C94.8252891,27.6400845 99.7718549,39.6113112 99.7718549,52.3448092 C99.7718549,65.0781514 94.8252891,77.0495338 85.8431747,86.0534642 C76.8610603,95.0573945 64.9186838,100.015975 52.2161937,100.015975" id="Fill-45" stroke="#36BC99" stroke-width="2.4" fill="#36BC99"></path>
                                                    </g>
                                                    <g id="Group-84" opacity="0.397154018" transform="translate(53.573502, 0.181752)" fill="#36BC99">
                                                        <path d="M4.73358182,43.6210827 L4.16594379,43.4115277 C5.58589396,39.5373346 7.37354172,35.78126 9.47975708,32.2475354 L9.998887,32.5591373 C7.9119505,36.0604067 6.14047211,39.7821535 4.73358182,43.6210827" id="Fill-48"></path>
                                                        <path d="M4.96481929,91.5575005 C1.75986444,83.6833502 0.113543152,75.3612234 0.0717204655,66.8222079 L0.676672408,66.8192433 C0.71802867,75.2802412 2.34911344,83.5260669 5.52483906,91.3279731 L4.96481929,91.5575005 Z" id="Fill-50"></path>
                                                        <path d="M66.4531391,132.981751 C64.7026498,132.981751 62.9479627,132.912315 61.1909434,132.773288 L61.2385187,132.168028 C76.7461842,133.395868 92.2397015,129.02642 104.8644,119.865293 C110.763731,115.584316 115.865943,110.417061 120.0294,104.507391 L120.523187,104.857846 C116.321329,110.822128 111.172163,116.036818 105.218727,120.357271 C98.7298362,125.066095 91.5590334,128.52071 83.9054818,130.625154 C78.2031373,132.192994 72.3530919,132.981751 66.4531391,132.981751" id="Fill-52"></path>
                                                        <path d="M132.187799,74.4488087 L131.587511,74.3756283 C132.314355,68.3706213 132.219049,62.3041364 131.304081,56.3448477 L131.902036,56.2523189 C132.825245,62.266532 132.921484,68.3887213 132.187799,74.4488087" id="Fill-54"></path>
                                                        <path d="M125.445173,37.5729007 C123.794188,34.1800757 121.829765,30.8950708 119.606477,27.8093226 C113.198122,18.9148594 104.632245,11.7211777 94.8343872,7.00595597 L95.0958956,6.45874122 C104.98424,11.2174967 113.629409,18.4774933 120.096689,27.4535628 C122.340033,30.5675533 124.322335,33.8825169 125.988713,37.306549 L125.445173,37.5729007 Z" id="Fill-56"></path>
                                                        <path d="M64.1760571,0.679454415 L64.1566227,0.0727903283 C64.8677639,0.0498531831 65.5888554,0.0381505579 66.2998411,0.0381505579 L66.4879654,0.0384626279 L66.4864107,0.645438785 L66.2998411,0.645126715 C65.5953854,0.645126715 64.8808238,0.656673305 64.1760571,0.679454415 L64.1760571,0.679454415 Z M71.1033865,0.820978162 C70.3389175,0.764961596 69.562788,0.7217399 68.7962979,0.69271739 L68.8191526,0.0860533035 C69.5926391,0.115387884 70.376076,0.158921649 71.1473858,0.215562355 L71.1033865,0.820978162 Z M59.5663886,0.991836488 L59.5045097,0.387824997 C60.2744202,0.308403181 61.0561469,0.2416202 61.8279231,0.189348475 L61.868502,0.794920316 C61.1038776,0.846723937 60.3293028,0.913038813 59.5663886,0.991836488 L59.5663886,0.991836488 Z M75.6967302,1.3199781 C74.9378583,1.21044153 74.1667039,1.11291965 73.4044116,1.0302211 L73.4694,0.426677712 C74.2386887,0.510312473 75.0169949,0.608614524 75.7827077,0.719087305 L75.6967302,1.3199781 Z M54.9898362,1.62861533 L54.8856682,1.03084524 C55.6481159,0.896811172 56.4231572,0.774947836 57.1893363,0.66837593 L57.2725153,1.26973483 C56.5133325,1.37537052 55.7452876,1.49614161 54.9898362,1.62861533 L54.9898362,1.62861533 Z M80.2438978,2.139786 C79.4957537,1.97750959 78.732995,1.82631168 77.9775436,1.69009312 L78.0845102,1.0926351 C78.8469579,1.23010194 79.6165576,1.38270417 80.371698,1.54654092 L80.2438978,2.139786 Z M50.4694101,2.58838663 L50.3234194,1.99919846 C51.0742066,1.81180042 51.838831,1.6351688 52.5959927,1.47460878 L52.7211498,2.06832197 C51.970829,2.2276337 51.2133564,2.40254894 50.4694101,2.58838663 L50.4694101,2.58838663 Z M84.7231231,3.27634495 C83.9864841,3.06179682 83.2363188,2.85739097 82.4934609,2.66890069 L82.6416282,2.08033666 C83.3913271,2.27069936 84.1484887,2.47697763 84.8916576,2.69355422 L84.7231231,3.27634495 Z M46.0279652,3.86662536 L45.8407737,3.28945189 C46.5769463,3.04884592 47.3272671,2.81853825 48.0707469,2.60445823 L48.2374158,3.18802914 C47.5007768,3.39992467 46.7574524,3.62835991 46.0279652,3.86662536 L46.0279652,3.86662536 Z M89.1115512,4.7249739 C88.3917034,4.45909026 87.657552,4.20241268 86.9299306,3.96227482 L87.1188323,3.38556945 C87.8532946,3.62789181 88.5938205,3.88690991 89.3205091,4.15544615 L89.1115512,4.7249739 Z M41.6875789,5.45755824 L41.4601194,4.89520809 C42.1770131,4.60311057 42.9091433,4.31990704 43.6362984,4.05324322 L43.8438571,4.62339512 C43.1233874,4.88756238 42.3979426,5.16826934 41.6875789,5.45755824 L41.6875789,5.45755824 Z M93.3877265,6.47880732 C92.6898007,6.16346059 91.9755501,5.85560353 91.2650308,5.56428618 L91.4937341,5.00240414 C92.2109387,5.29637408 92.9317193,5.60703977 93.636175,5.92535117 L93.3877265,6.47880732 Z M37.4700175,7.35307144 L37.2035339,6.80819721 C37.8988166,6.46570038 38.6091804,6.13116134 39.3150354,5.81378615 L39.5622401,6.36786644 C38.862915,6.68227697 38.1589257,7.01369531 37.4700175,7.35307144 L37.4700175,7.35307144 Z M33.3956483,9.54255458 L33.0915398,9.01780887 C33.7621021,8.62647309 34.4472789,8.24247095 35.128258,7.87656887 L35.4137095,8.41176893 C34.7391049,8.77423823 34.0599915,9.15465157 33.3956483,9.54255458 L33.3956483,9.54255458 Z M29.4834391,12.0133688 L29.143727,11.5110922 C29.7849045,11.0741942 30.441785,10.6430694 31.0960224,10.2298888 L31.4181659,10.743556 C30.7698365,11.1531479 30.1188641,11.5803717 29.4834391,12.0133688 L29.4834391,12.0133688 Z M25.7514251,14.7500667 L25.3778195,14.2725996 C25.9857255,13.7935722 26.6108891,13.3182896 27.2358973,12.8600148 L27.5927117,13.3501207 C26.9733006,13.8043386 26.353734,14.2754083 25.7514251,14.7500667 L25.7514251,14.7500667 Z M22.2202844,17.7372008 L21.814651,17.2870398 C22.3874197,16.7669752 22.978068,16.2494071 23.56996,15.7485347 L23.9598905,16.2127388 C23.3732846,16.7089301 22.7879224,17.2219732 22.2202844,17.7372008 L22.2202844,17.7372008 Z M18.9066528,20.965409 L18.4702354,20.5450507 C19.0058456,19.9851971 19.558869,19.4272159 20.1139136,18.8863986 L20.5352499,19.3220483 C19.9851806,19.8578725 19.4372878,20.4108606 18.9066528,20.965409 L18.9066528,20.965409 Z M15.8277879,24.420336 L15.3630741,24.0319648 C15.8568616,23.4365353 16.3693062,22.8406376 16.8859485,22.2609676 L17.336825,22.6654103 C16.8248469,23.2399312 16.3172221,23.8305237 15.8277879,24.420336 L15.8277879,24.420336 Z M13.00017,28.0854421 L12.509181,27.7309306 C12.9613014,27.099925 13.4303685,26.4690755 13.9033224,25.856014 L14.381718,26.2276894 C13.9129618,26.8351336 13.448248,27.4600538 13.00017,28.0854421 L13.00017,28.0854421 Z M10.4381029,31.9423153 L9.92332631,31.6236918 C10.3292707,30.9631957 10.7526282,30.300671 11.1818938,29.6543741 L11.6851653,29.9909416 C11.2599421,30.6313092 10.8403159,31.2879045 10.4381029,31.9423153 L10.4381029,31.9423153 Z" id="Fill-58"></path>
                                                        <path d="M2.70617657,85.2618471 C2.65782394,85.096294 2.61024869,84.9304288 2.56329534,84.7644075 L3.14508156,84.5985423 C3.19172396,84.7631592 3.23883279,84.9274641 3.28656351,85.0914569 L2.70617657,85.2618471 Z M4.17308008,89.7046317 C3.90364248,88.9761043 3.64353335,88.2330656 3.40037097,87.4961123 L3.97438345,87.3054375 C4.21552467,88.0353693 4.4731462,88.7715424 4.7400962,89.4933603 L4.17308008,89.7046317 Z M5.94984461,94.0321065 C5.62972227,93.3246438 5.31799555,92.6018896 5.02321558,91.8841286 L5.58245797,91.6528847 C5.8744394,92.3640923 6.18336757,93.0799809 6.5005359,93.7810461 L5.94984461,94.0321065 Z M8.02698621,98.2227385 C7.65726745,97.538525 7.29547789,96.8394882 6.95156792,96.1456006 L7.49308619,95.8753479 C7.83388667,96.5629942 8.19241126,97.2553215 8.55870958,97.9334496 L8.02698621,98.2227385 Z M10.3923778,102.256711 C9.97679405,101.601676 9.5671183,100.929946 9.17454475,100.2604 L9.69569585,99.9525425 C10.0848489,100.616003 10.4907933,101.281649 10.9024902,101.930598 L10.3923778,102.256711 Z M13.0314049,106.115301 C12.8970748,105.932896 12.763522,105.749399 12.6305912,105.564809 C12.3081367,105.117457 11.9880144,104.661367 11.6787753,104.209177 L12.1773825,103.865744 C12.4838231,104.313877 12.8013024,104.765754 13.1206474,105.209206 C13.2523344,105.391923 13.3847988,105.573859 13.5178851,105.75486 L13.0314049,106.115301 Z M15.9288309,109.780251 C15.427425,109.189503 14.9294397,108.581434 14.448401,107.973054 L14.9222878,107.595761 C15.3988177,108.19868 15.8924498,108.801287 16.3893468,109.386575 L15.9288309,109.780251 Z M19.0742389,113.23393 C18.5324097,112.679381 17.9930681,112.107669 17.4712951,111.534709 L17.9176628,111.125117 C18.4347716,111.692928 18.9692935,112.259335 19.5061476,112.808734 L19.0742389,113.23393 Z M22.4542583,116.456521 C21.8754261,115.942385 21.2972158,115.410306 20.7359522,114.87495 L21.1526243,114.434931 C21.7087572,114.965294 22.2815259,115.49238 22.855072,116.001835 L22.4542583,116.456521 Z" id="Fill-60"></path>
                                                        <path d="M42.8444659,128.798515 C42.1208868,128.523893 41.392177,128.232576 40.6785482,127.932521 L40.9122267,127.372667 C41.6193255,127.67007 42.3413498,127.958578 43.058399,128.230703 L42.8444659,128.798515 Z M47.2605684,130.299103 C46.517555,130.075505 45.7701882,129.835992 45.0393018,129.587584 L45.2333342,129.012751 C45.9575352,129.258818 46.6980611,129.496147 47.4342336,129.717717 L47.2605684,130.299103 Z M51.7704222,131.485594 C51.016681,131.315203 50.2545441,131.129054 49.5051562,130.931981 L49.6584543,130.344666 C50.4010013,130.540021 51.1562972,130.724611 51.903353,130.893441 L51.7704222,131.485594 Z M56.3521052,132.352992 C55.586548,132.235654 54.8133724,132.103336 54.0535677,131.959472 L54.1658204,131.363106 C54.9186288,131.505566 55.684808,131.636635 56.4433689,131.753038 L56.3521052,132.352992 Z M60.9830738,132.897086 C60.211453,132.833736 59.4308147,132.755875 58.6626143,132.66553 L58.7330443,132.062767 C59.4940929,132.152175 60.2677348,132.229256 61.0322038,132.292139 L60.9830738,132.897086 Z" id="Fill-62"></path>
                                                        <path d="M131.91407,76.4743771 L131.315803,76.3841889 C131.429922,75.6239863 131.532069,74.8506769 131.619601,74.0856373 L132.220666,74.1549168 C132.132045,74.926978 132.028966,75.707309 131.91407,76.4743771 L131.91407,76.4743771 Z M131.059581,81.074289 L130.469244,80.9424394 C130.635602,80.1936274 130.791387,79.4292119 130.932247,78.6707258 L131.526938,78.7819787 C131.384679,79.5474865 131.227494,80.3187675 131.059581,81.074289 L131.059581,81.074289 Z M129.886991,85.6030488 L129.307226,85.430006 C129.52629,84.6916484 129.734782,83.9401838 129.927415,83.196365 L130.512777,83.3491232 C130.318433,84.0996516 130.107921,84.8579817 129.886991,85.6030488 L129.886991,85.6030488 Z M128.401586,90.0384998 L127.835347,89.8252 C128.104941,89.1046303 128.365516,88.3697055 128.609767,87.6403979 L129.183157,87.8340373 C128.936575,88.5697423 128.673511,89.3115327 128.401586,90.0384998 L128.401586,90.0384998 Z M126.609585,94.3578607 L126.059671,94.1052401 C126.379483,93.4044869 126.690743,92.6896905 126.984901,91.9806675 L127.543366,92.2140958 C127.246565,92.9295163 126.932351,93.6507101 126.609585,94.3578607 L126.609585,94.3578607 Z M124.518917,98.5400669 L123.988127,98.2490616 C124.356446,97.573118 124.716992,96.882195 125.060436,96.1953289 L125.600865,96.4674539 C125.254468,97.1605614 124.890346,97.8580379 124.518917,98.5400669 L124.518917,98.5400669 Z M122.139999,102.563585 L121.630975,102.235444 C122.045004,101.588835 122.453436,100.925218 122.844921,100.263161 L123.36514,100.572735 C122.969923,101.241033 122.55776,101.910891 122.139999,102.563585 L122.139999,102.563585 Z M120.668276,104.764303 L120.172934,104.415877 L120.347998,104.163724 L120.845206,104.509654 L120.668276,104.764303 Z" id="Fill-64"></path>
                                                        <path d="M94.8951312,18.7984885 C91.9529285,17.0320162 88.8252445,15.5325198 85.5988342,14.3416607 L85.8496148,13.6576033 C89.1183143,14.8642219 92.2870436,16.3833787 95.2679594,18.1729441 L94.8951312,18.7984885 Z" id="Fill-66"></path>
                                                        <path d="M45.5061145,15.0112849 L45.2313908,14.3365896 C51.8746679,11.6131547 58.8955931,10.2141448 66.099512,10.1787249 L66.1030879,10.9075644 C58.9926093,10.9425162 52.0627923,12.32327 45.5061145,15.0112849" id="Fill-68"></path>
                                                        <path d="M34.0108771,112.530649 C28.9790948,108.9601 24.5796281,104.584722 20.9348354,99.5257556 C16.9623021,94.0119467 14.0477739,87.9187799 12.2724087,81.415241 C10.5570566,75.1320236 9.94744044,68.6380029 10.4601959,62.1138674 L11.184086,62.1711322 C10.1523561,75.2980448 13.8242013,88.4124747 21.523307,99.0988438 C25.1213018,104.092432 29.4637094,108.411481 34.4300368,111.935375 L34.0108771,112.530649 Z" id="Fill-70"></path>
                                                        <path d="M66.4690908,122.856078 C64.1988497,122.856078 61.9275202,122.718143 59.6652083,122.442429 L59.752896,121.718895 C64.7997593,122.334453 69.8980847,122.253627 74.9059238,121.479225 L75.0164663,122.199639 C72.1877601,122.637005 69.3296693,122.856078 66.4690908,122.856078" id="Fill-72"></path>
                                                        <path d="M91.0000864,117.174672 L90.6813633,116.519793 C93.5332352,115.122031 96.293999,113.459166 98.88685,111.57754 C106.361761,106.153295 112.407238,98.9023489 116.370132,90.6087765 L117.024836,90.9239672 C113.009858,99.3267641 106.885089,106.672892 99.3123842,112.168133 C96.6857951,114.074256 93.8892722,115.758654 91.0000864,117.174672" id="Fill-74"></path>
                                                        <path d="M97.0531196,20.2258811 C96.5157991,19.8663764 95.964175,19.5112408 95.4133282,19.1703043 L95.7943966,18.5499091 C96.3525507,18.8953706 96.9116376,19.2551873 97.4561099,19.619373 L97.0531196,20.2258811 Z M100.215785,22.5083611 C99.7052065,22.1115641 99.1800131,21.7180438 98.6546642,21.3388787 L99.0784881,20.747194 C99.6108334,21.1313522 100.143023,21.5300216 100.660287,21.9319678 L100.215785,22.5083611 Z M103.209295,25.0096021 C102.729189,24.5784774 102.233069,24.1489131 101.734773,23.7324557 L102.199487,23.17229 C102.704468,23.5942086 103.206963,24.0297023 103.693598,24.4664443 L103.209295,25.0096021 Z M106.019188,27.7169655 C105.5694,27.2519812 105.104686,26.7882451 104.638107,26.3383962 L105.141067,25.8127143 C105.61371,26.2683365 106.084643,26.7383139 106.540184,27.2092276 L106.019188,27.7169655 Z M108.632407,30.6157837 C108.216356,30.1203726 107.785225,29.6249615 107.35114,29.1434374 L107.88986,28.6545798 C108.329386,29.1423452 108.766115,29.6441538 109.187762,30.1461184 L108.632407,30.6157837 Z M111.038222,33.6909215 C110.655754,33.1655517 110.259915,32.641118 109.861745,32.1322879 L110.432959,31.6821269 C110.83626,32.1976666 111.237074,32.7288097 111.624672,33.2610451 L111.038222,33.6909215 Z M113.228549,36.9291159 C112.885105,36.3814331 112.525959,35.8303174 112.161526,35.2915286 L112.762436,34.8820927 C113.131688,35.4279032 113.495343,35.9860404 113.84314,36.5410569 L113.228549,36.9291159 Z M115.188307,40.3113306 C114.883888,39.7407106 114.564387,39.1660337 114.238201,38.6032155 L114.865853,38.2366892 C115.196392,38.8069972 115.520245,39.3893198 115.828707,39.9674295 L115.188307,40.3113306 Z M116.906147,43.8227423 C116.642773,43.2321498 116.364162,42.6362522 116.078244,42.0519011 L116.730149,41.730781 C117.019954,42.3227778 117.302141,42.9264773 117.569091,43.5250275 L116.906147,43.8227423 Z M118.371962,47.4469673 C118.15041,46.8376506 117.914555,46.2236529 117.671082,45.6218259 L118.343976,45.3476724 C118.590715,45.9574572 118.829679,46.5795687 119.05434,47.1969992 L118.371962,47.4469673 Z M119.57829,51.1659055 C119.400116,50.5422336 119.208416,49.9131005 119.008164,49.295826 L119.698627,49.0701994 C119.901677,49.6957437 120.09602,50.3333028 120.276371,50.9652445 L119.57829,51.1659055 Z M120.519067,54.9613009 C120.385981,54.3295152 120.239057,53.6882113 120.082183,53.0551773 L120.78695,52.8793259 C120.946001,53.5206297 121.09479,54.1703595 121.229586,54.8105711 L120.519067,54.9613009 Z M121.190562,58.8138051 C121.102253,58.1728133 121.000572,57.5227715 120.888941,56.8816237 L121.60428,56.7561715 C121.717466,57.4055892 121.82039,58.0642129 121.909943,58.7137867 L121.190562,58.8138051 Z M121.589355,62.7042258 C121.545666,62.0555883 121.490162,61.3999292 121.424085,60.7555047 L122.14642,60.6809199 C122.21343,61.3337704 122.269712,61.9980114 122.314022,62.6550748 L121.589355,62.7042258 Z M122.441511,66.6150871 L121.715134,66.6130586 L121.715289,66.4551512 C121.715289,65.8589415 121.705494,65.2541498 121.686526,64.657628 L122.412127,64.6339107 C122.431716,65.2383903 122.441667,65.8511397 122.441667,66.4551512 L122.441511,66.6150871 Z M122.291789,70.5741632 L121.567588,70.5211113 C121.614697,69.8754384 121.650923,69.2185311 121.675332,68.5683332 L122.401088,68.5959514 C122.376212,69.2545752 122.33952,69.9200644 122.291789,70.5741632 L122.291789,70.5741632 Z M121.867032,74.5131108 L121.148273,74.4095035 C121.239848,73.7685117 121.321938,73.1158173 121.391746,72.4687402 L122.113771,72.5473818 C122.04303,73.2027288 121.960006,73.8640052 121.867032,74.5131108 L121.867032,74.5131108 Z M121.168951,78.4124255 L120.459054,78.2585749 C120.595405,77.626009 120.722428,76.9804922 120.837168,76.3399686 L121.551885,76.4688535 C121.435746,77.117647 121.307013,77.7717457 121.168951,78.4124255 L121.168951,78.4124255 Z M120.201277,82.253071 L119.503662,82.0499134 C119.684324,81.4257734 119.856279,80.790867 120.014552,80.1626701 L120.718697,80.3413301 C120.558402,80.9777969 120.384115,81.6209732 120.201277,82.253071 L120.201277,82.253071 Z M118.968052,86.0166352 L118.286606,85.7644827 C118.510179,85.155478 118.725978,84.5341467 118.927628,83.9179645 L119.617625,84.1456195 C119.41302,84.7697595 119.194578,85.3993608 118.968052,86.0166352 L118.968052,86.0166352 Z M117.475028,89.6837698 L116.812706,89.3844947 C117.078879,88.7915617 117.337433,88.1870821 117.581373,87.5875956 L118.253646,87.8631534 C118.006441,88.4704417 117.744466,89.0830351 117.475028,89.6837698 L117.475028,89.6837698 Z" id="Fill-76"></path>
                                                        <path d="M50.7470257,13.1167703 L50.5430429,12.4172654 C50.6829701,12.3760722 50.8228973,12.3356591 50.96298,12.2958702 L51.1610548,12.9970915 C51.0228378,13.0362563 50.8849317,13.0763573 50.7470257,13.1167703 M47.0478169,14.3471063 L46.7951705,13.6638291 C47.4102283,13.4346136 48.0369467,13.2138241 48.6582235,13.0072338 L48.8866158,13.6989369 C48.2735792,13.9028747 47.65479,14.1208556 47.0478169,14.3471063 M43.4445359,15.8372406 L43.1441589,15.1736237 C43.7407152,14.9018108 44.3503313,14.6368633 44.9562161,14.3862711 L45.232961,15.0601863 C44.63485,15.3075018 44.033163,15.5690164 43.4445359,15.8372406 M39.9549069,17.5792154 L39.6086648,16.9385356 C40.1850095,16.6249053 40.7745694,16.3173603 41.3610199,16.0246386 L41.6844072,16.677177 C41.105575,16.9661538 40.5237888,17.2696419 39.9549069,17.5792154 M36.5954103,19.5633564 L36.2053243,18.9485785 C36.7577258,18.5956274 37.3242755,18.2473572 37.8894259,17.9135984 L38.2577454,18.5417953 C37.6999023,18.8711852 37.1406599,19.2150863 36.5954103,19.5633564 M33.3815933,21.7771811 L32.9503066,21.1909575 C33.104382,21.0767399 33.2590793,20.9631464 33.414554,20.8503331 C33.7920465,20.5764917 34.1768463,20.3043667 34.5583811,20.0416037 L34.9693007,20.6424945 C34.592741,20.9018247 34.2127609,21.170517 33.8402436,21.4409256 C33.6866347,21.5524906 33.533803,21.6645238 33.3815933,21.7771811 M30.3291591,24.2078943 L29.8583818,23.6528778 C30.3569891,23.2267462 30.8699,22.8034233 31.3829665,22.3949236 L31.8343094,22.9660117 C31.3279284,23.3692062 30.8215474,23.7870679 30.3291591,24.2078943 M27.4534996,26.8461341 L26.944942,26.3257574 C27.4122989,25.8657662 27.8944258,25.4073354 28.378263,24.9635718 L28.8681637,25.5015805 C28.390701,25.9397268 27.9146375,26.3920723 27.4534996,26.8461341 M24.7698514,29.680822 L24.226001,29.1977376 C24.6603972,28.7054472 25.1092526,28.214093 25.5601291,27.7377181 L26.0867218,28.2396827 C25.6415978,28.7099722 25.198495,29.194929 24.7698514,29.680822" id="Fill-78"></path>
                                                        <path d="M14.4929601,46.7821646 L13.8136913,46.5243947 C14.0456595,45.9086806 14.2914649,45.2895337 14.5442667,44.6838059 L15.2140516,44.965449 C14.9645148,45.5632191 14.7219743,46.1744082 14.4929601,46.7821646 M13.2434102,50.4861234 L12.5478165,50.2767245 C12.7362518,49.6463431 12.9380579,49.0114366 13.1479487,48.3893251 L13.8357687,48.6230655 C13.6286764,49.2370632 13.4293579,49.8638558 13.2434102,50.4861234 M12.2552132,54.269036 L11.5467151,54.1089441 C11.6906846,53.4671721 11.8478695,52.8196269 12.0139165,52.1840963 L12.716351,52.3689978 C12.5524807,52.9962585 12.397317,53.6355339 12.2552132,54.269036 M11.5328778,58.1121781 L10.8150513,58.0021734 C10.9136222,57.353848 11.025253,56.6969406 11.1468342,56.0492393 L11.860463,56.1842096 C11.7404365,56.823485 11.630205,57.4722786 11.5328778,58.1121781 M11.0796692,61.9965134 L10.3559346,61.9370641 C10.4092624,61.2820292 10.4750282,60.6187244 10.5510553,59.9655619 L11.2724578,60.0502889 C11.197208,60.6950255 11.1323751,61.3499044 11.0796692,61.9965134" id="Fill-80"></path>
                                                        <path d="M34.3049574,112.804163 L34.0899359,112.653745 L34.506919,112.057067 L34.71852,112.204988 L34.3049574,112.804163 Z M37.6260518,114.945431 C37.0650992,114.611204 36.5001043,114.261061 35.9467699,113.904365 L36.3390325,113.290992 C36.8853705,113.643163 37.4430582,113.98878 37.9967035,114.318482 L37.6260518,114.945431 Z M41.0897166,116.845313 C40.5024887,116.549783 39.914328,116.240365 39.3410929,115.925799 L39.6895117,115.286367 C40.255284,115.596721 40.8358264,115.902082 41.415125,116.193867 L41.0897166,116.845313 Z M44.678072,118.495851 C44.0738974,118.243231 43.4653695,117.976255 42.8694351,117.702413 L43.1719888,117.039733 C43.7601495,117.310297 44.3609036,117.573684 44.9573045,117.823028 L44.678072,118.495851 Z M48.3733939,119.889088 C47.7491631,119.678597 47.1233776,119.454999 46.5134504,119.224847 L46.7690508,118.542506 C47.3710487,118.769849 47.9887496,118.990326 48.6047402,119.198321 L48.3733939,119.889088 Z M52.15687,121.019249 C51.5223779,120.853696 50.8825996,120.674724 50.2552593,120.487326 L50.4625071,119.788913 C51.0817627,119.973815 51.7133008,120.150447 52.3395528,120.313815 L52.15687,121.019249 Z M56.0096878,121.880875 C55.3650898,121.76026 54.7144284,121.626694 54.0757384,121.483766 L54.2337007,120.772402 C54.8641505,120.913458 55.5065718,121.045307 56.1427741,121.164362 L56.0096878,121.880875 Z M59.9133459,122.470375 C59.2606632,122.395166 58.602228,122.307318 57.9563862,122.209796 L58.0644411,121.489071 C58.7020427,121.585344 59.3520823,121.671944 59.9962139,121.746373 L59.9133459,122.470375 Z" id="Fill-82"></path>
                                                    </g>
                                                </g>
                                            </g>
                                        </g>
                                    </g>
                                </g>
                                <g id="ui-color-1_check-circle-08" transform="translate(165.488053, 66.587938)" fill="#36BC99">
                                    <path d="M41.471869,14.9453656 L20.4158745,35.3664796 L13.0360448,27.9892735 C12.2673672,27.2205959 11.023841,27.2205959 10.2551634,27.9892735 C9.48648583,28.7579511 9.48648583,30.0014773 10.2551634,30.7701549 L19.0018225,39.516814 C19.3848496,39.9024645 19.8885564,40.0966015 20.3922632,40.0966015 C20.8854761,40.0966015 21.3786891,39.9129584 21.7617161,39.5404252 L44.2107748,17.7708461 C44.9899463,17.0126623 45.0109341,15.7691361 44.2553738,14.9899646 C43.4945667,14.2081697 42.2510404,14.1898054 41.471869,14.9453656" id="Fill-3"></path>
                                </g>
                            </g>
                        </g>
                    </g>
                </g>
            </g>
        </g>
    </g>
</svg>